<svg width="400" height="242" viewBox="0 0 400 242" xmlns="http://www.w3.org/2000/svg" role="img" aria-label="Most Used Languages">
  <title>Most Used Languages</title>
  <rect width="400" height="242" rx="6" fill="#21282d" stroke="#30363d" stroke-width="1"/>
  <text x="22" y="28" font-family="'Segoe UI', Ubuntu, 'Helvetica Neue', sans-serif" font-size="14" font-weight="600" fill="#5fb3bd">Most Used Languages</text>
  <circle cx="27" cy="53" r="5" fill="#3178c6"/>
  <text x="36" y="57" font-family="'Segoe UI', Ubuntu, 'Helvetica Neue', sans-serif" font-size="11" fill="#e6ebed">TypeScript</text>
  <text x="378" y="57" font-family="'Segoe UI', Ubuntu, 'Helvetica Neue', sans-serif" font-size="11" fill="#e6ebed" text-anchor="end">49.4%</text>
  <rect x="22" y="63" width="298" height="7" rx="3.5" fill="#2d3741"/>
  <rect x="22" y="63" width="147.14" height="7" rx="3.5" fill="#3178c6"/>
  <circle cx="27" cy="84" r="5" fill="#3572A5"/>
  <text x="36" y="88" font-family="'Segoe UI', Ubuntu, 'Helvetica Neue', sans-serif" font-size="11" fill="#e6ebed">Python</text>
  <text x="378" y="88" font-family="'Segoe UI', Ubuntu, 'Helvetica Neue', sans-serif" font-size="11" fill="#e6ebed" text-anchor="end">21.6%</text>
  <rect x="22" y="94" width="298" height="7" rx="3.5" fill="#2d3741"/>
  <rect x="22" y="94" width="64.25" height="7" rx="3.5" fill="#3572A5"/>
  <circle cx="27" cy="115" r="5" fill="#178600"/>
  <text x="36" y="119" font-family="'Segoe UI', Ubuntu, 'Helvetica Neue', sans-serif" font-size="11" fill="#e6ebed">C#</text>
  <text x="378" y="119" font-family="'Segoe UI', Ubuntu, 'Helvetica Neue', sans-serif" font-size="11" fill="#e6ebed" text-anchor="end">12.5%</text>
  <rect x="22" y="125" width="298" height="7" rx="3.5" fill="#2d3741"/>
  <rect x="22" y="125" width="37.29" height="7" rx="3.5" fill="#178600"/>
  <circle cx="27" cy="146" r="5" fill="#e34c26"/>
  <text x="36" y="150" font-family="'Segoe UI', Ubuntu, 'Helvetica Neue', sans-serif" font-size="11" fill="#e6ebed">HTML</text>
  <text x="378" y="150" font-family="'Segoe UI', Ubuntu, 'Helvetica Neue', sans-serif" font-size="11" fill="#e6ebed" text-anchor="end">10.3%</text>
  <rect x="22" y="156" width="298" height="7" rx="3.5" fill="#2d3741"/>
  <rect x="22" y="156" width="30.60" height="7" rx="3.5" fill="#e34c26"/>
  <circle cx="27" cy="177" r="5" fill="#663399"/>
  <text x="36" y="181" font-family="'Segoe UI', Ubuntu, 'Helvetica Neue', sans-serif" font-size="11" fill="#e6ebed">CSS</text>
  <text x="378" y="181" font-family="'Segoe UI', Ubuntu, 'Helvetica Neue', sans-serif" font-size="11" fill="#e6ebed" text-anchor="end">3.7%</text>
  <rect x="22" y="187" width="298" height="7" rx="3.5" fill="#2d3741"/>
  <rect x="22" y="187" width="11.02" height="7" rx="3.5" fill="#663399"/>
  <circle cx="27" cy="208" r="5" fill="#fcb32c"/>
  <text x="36" y="212" font-family="'Segoe UI', Ubuntu, 'Helvetica Neue', sans-serif" font-size="11" fill="#e6ebed">MDX</text>
  <text x="378" y="212" font-family="'Segoe UI', Ubuntu, 'Helvetica Neue', sans-serif" font-size="11" fill="#e6ebed" text-anchor="end">2.6%</text>
  <rect x="22" y="218" width="298" height="7" rx="3.5" fill="#2d3741"/>
  <rect x="22" y="218" width="7.70" height="7" rx="3.5" fill="#fcb32c"/>
</svg>